<svg xmlns="http://www.w3.org/2000/svg" xml:space="preserve" width="2048" height="2048" style="shape-rendering:geometricPrecision;text-rendering:geometricPrecision;image-rendering:optimizeQuality;fill-rule:evenodd;clip-rule:evenodd"><defs><style>.fil3{fill:none}.fil1,.fil2{fill:#717171;fill-rule:nonzero}.fil2{fill:#919191}</style></defs><g id="Layer_x0020_1"><ellipse cx="1024.37" cy="1023.99" rx="747.56" ry="749.616" style="fill:#dadada"/><path class="fil1" d="M300.864 842.388a735.98 735.98 0 0 1 40.915-119.196l8.459-19.126h315.724l-6.621 37.502a1464.631 1464.631 0 0 0-15.496 113.799c-3.706 38.332-6.013 76.744-7.11 115.025l-.892 31.125h-357.62l2.563-34.376a741.72 741.72 0 0 1 20.078-124.754z"/><path class="fil2" d="M1078.49 704.066h255.979l5.099 25.876c7.547 38.305 13.43 77.254 17.794 116.573 4.45 40.106 7.27 80.885 8.616 122.002l1.081 33H1046.49v-297.45h32z"/><path class="fil1" d="M560.061 440.483A745.32 745.32 0 0 1 759.275 327.05l97.262-36.957L796.65 375.3c-24.858 35.369-45.958 74.57-63.762 115.174-20.817 47.47-37.21 96.949-49.9 144.608l-6.357 23.876H371.189l33.369-49.75c43.167-64.36 95.739-121.186 155.503-168.725zM1487.95 1607.52c-59.832 47.594-126.985 85.999-199.262 113.45l-97.28 36.946 59.905-85.196c24.916-35.436 46.067-74.688 63.91-115.338 20.83-47.454 37.241-96.91 49.938-144.588l6.358-23.876h305.438l-33.38 49.75c-43.215 64.408-95.825 121.282-155.627 168.853zM431.038 1388.92H676.629l6.36 23.876c12.7 47.685 29.117 97.152 49.954 144.612 17.848 40.651 39.002 79.9 63.923 115.336l59.881 85.147-97.256-36.897a744.608 744.608 0 0 1-199.37-113.447c-59.806-47.569-112.403-104.445-155.583-168.877l-33.34-49.75h59.84zM300.963 1205.72c-10.224-40.904-16.951-82.644-20.148-124.86l-2.604-34.376h357.631l.892 31.126c1.097 38.274 3.405 76.685 7.11 115.016a1464.342 1464.342 0 0 0 15.496 113.795l6.623 37.5H350.23l-8.446-19.125a737.097 737.097 0 0 1-40.822-119.075z"/><path class="fil2" d="M1078.49 1046.48h288.573l-1.084 33.001c-1.35 41.095-4.17 81.838-8.619 121.91-4.364 39.334-10.25 78.305-17.792 116.65l-5.09 25.876H1046.49V1046.48h32z"/><path class="fil1" d="M1617.1 658.958h-245.578l-6.36-23.876c-12.69-47.645-29.095-97.097-49.92-144.547-17.826-40.617-38.954-79.833-63.84-115.227l-59.925-85.22 97.299 36.97a745.912 745.912 0 0 1 199.285 113.45c59.773 47.53 112.363 104.35 155.539 168.7l33.38 49.751h-59.88zM1404.18 855.369a1472.667 1472.667 0 0 0-15.516-113.802l-6.621-37.501h315.891l8.45 19.125c16.963 38.398 30.536 78.201 40.707 119.016a749.039 749.039 0 0 1 20.098 124.934l2.588 34.376h-357.461l-.932-31.125c-1.146-38.26-3.483-76.672-7.205-115.023zM1677.12 1343.92h-295.086l6.623-37.501a1464.324 1464.324 0 0 0 15.496-113.795c3.705-38.33 6.013-76.741 7.11-115.016l.892-31.126h357.611l-2.547 34.251a743.424 743.424 0 0 1-20.03 124.787c-10.2 40.9-23.824 80.778-40.818 119.274l-8.444 19.126h-20.806z"/><g id="_495637880"><path id="_495650888" class="fil2" d="M1046.49 1726.63v-337.712h278.044l-12.464 41.25c-19.133 63.32-50.27 144.084-94.342 210.473-34.115 51.388-76.178 94.386-126.986 115.49l-44.251 18.378v-47.88z"/><path id="_495626360" class="fil2" d="M1001.52 1420.92v353.481l-44.251-18.42c-50.762-21.13-92.803-64.117-126.913-115.476-44.066-66.346-75.237-147.059-94.408-210.334l-12.499-41.25h278.071v32z"/><g><path id="_495624944" class="fil2" d="M1217.7 407.312c44.07 66.358 75.22 147.097 94.369 210.395l12.478 41.251H1046.49V273.49l44.25 18.378c50.788 21.093 92.844 64.075 126.96 115.445z"/><path id="_495632552" class="fil2" d="M1001.52 321.382v337.575H723.573l12.5-41.25c19.224-63.447 50.4-144.28 94.294-210.37 34.11-51.36 76.148-94.344 126.901-115.455l44.251-18.408v47.908z"/></g></g><path class="fil2" d="M969.524 1343.92H713.715l-5.104-25.876c-7.578-38.427-13.512-77.487-17.92-116.93-4.464-39.967-7.31-80.608-8.663-121.63l-1.089-33H1001.524V1343.92h-32zM690.695 846.77c4.402-39.413 10.33-78.444 17.91-116.828l5.11-25.876H1001.524V1001.518H680.94l1.09-33.001c1.354-41.05 4.198-81.737 8.666-121.747z"/><path class="fil3" d="M255.999 255.992h1536v1536h-1536z"/><path class="fil3" d="M0 0h2048v2048H0z"/></g></svg>